<?xml version="1.0" standalone="no"?>
<!DOCTYPE svg PUBLIC "-//W3C//DTD SVG 20010904//EN"
 "http://www.w3.org/TR/2001/REC-SVG-20010904/DTD/svg10.dtd">
<svg version="1.0" xmlns="http://www.w3.org/2000/svg"
 width="700.000000pt" height="700.000000pt" viewBox="0 0 700.000000 700.000000"
 preserveAspectRatio="xMidYMid meet">
<metadata>
Created by potrace 1.14, written by Peter Selinger 2001-2017
</metadata>
<g transform="translate(0.000000,700.000000) scale(0.100000,-0.100000)"
fill="#000000" stroke="none">
<path d="M3307 6994 c-1 -1 -45 -4 -97 -7 -127 -8 -289 -32 -430 -63 -14 -3
-36 -7 -50 -10 -40 -8 -166 -43 -281 -79 -413 -129 -850 -367 -1183 -643 -98
-82 -347 -327 -435 -431 -267 -309 -517 -757 -657 -1179 -40 -122 -75 -248
-90 -322 -3 -14 -11 -57 -19 -97 -8 -39 -18 -88 -21 -109 -3 -20 -7 -45 -9
-55 -14 -73 -20 -218 -20 -494 0 -324 6 -435 30 -565 4 -19 8 -46 10 -60 11
-75 51 -241 98 -395 127 -428 395 -918 685 -1253 78 -91 303 -316 386 -387 33
-27 64 -55 70 -61 24 -23 206 -154 286 -206 301 -193 610 -335 962 -442 146
-45 425 -101 561 -114 178 -16 795 -7 897 13 14 3 68 12 120 21 283 48 628
164 945 319 469 229 894 581 1211 1000 65 86 174 243 174 250 0 2 13 23 29 47
68 102 168 298 259 508 104 240 215 663 237 903 3 34 8 85 11 112 5 59 5 527
-1 600 -9 120 -16 201 -20 215 -2 8 -6 26 -9 40 -17 104 -38 210 -46 235 -5
17 -11 41 -14 55 -15 84 -102 346 -162 487 -115 269 -290 584 -408 735 -12 14
-32 41 -46 59 -97 129 -314 361 -466 500 -373 340 -933 637 -1451 768 -65 17
-129 32 -143 35 -50 9 -136 26 -165 31 -16 3 -48 8 -70 11 -22 2 -53 7 -70 9
-65 10 -599 26 -608 19z m-365 -2210 c29 -15 422 -255 488 -299 33 -21 420
-262 475 -295 13 -8 89 -55 167 -104 501 -314 665 -420 680 -439 59 -74 71
-153 34 -232 -14 -30 -32 -62 -39 -70 -12 -12 -328 -216 -409 -264 -15 -9 -92
-56 -170 -106 -79 -49 -151 -94 -160 -100 -10 -5 -100 -62 -200 -125 -101 -63
-191 -119 -200 -125 -10 -5 -61 -37 -115 -71 -273 -171 -526 -325 -560 -343
-91 -46 -206 -8 -274 92 l-34 50 0 1145 0 1146 28 44 c37 58 72 88 131 110 53
21 99 16 158 -14z"/>
</g>
</svg>
