<?xml version="1.0" standalone="no"?>
<!DOCTYPE svg PUBLIC "-//W3C//DTD SVG 20010904//EN"
 "http://www.w3.org/TR/2001/REC-SVG-20010904/DTD/svg10.dtd">
<svg version="1.0" xmlns="http://www.w3.org/2000/svg"
 width="512.000000pt" height="512.000000pt" viewBox="0 0 512.000000 512.000000"
 preserveAspectRatio="xMidYMid meet" fill="currentColor">

<g transform="translate(0.000000,512.000000) scale(0.100000,-0.100000)">
<path d="M4643 5071 c-113 -39 -94 -17 -563 -651 -625 -844 -774 -1052 -985
-1370 -459 -695 -745 -1257 -944 -1861 l-41 -125 -363 360 c-465 462 -797 768
-1091 1004 -129 103 -160 117 -276 117 -88 0 -101 -3 -162 -33 -203 -100 -277
-319 -157 -465 17 -21 100 -95 183 -165 83 -69 233 -199 333 -289 187 -168
737 -694 750 -718 20 -35 780 -788 812 -804 172 -87 413 -19 476 133 8 18 21
72 30 122 80 441 202 823 400 1254 277 604 672 1219 1434 2235 350 466 589
795 612 842 36 72 34 170 -6 241 -82 149 -283 228 -442 173z"/>
</g>
</svg>
