<?xml version="1.0" standalone="no"?>
<!DOCTYPE svg PUBLIC "-//W3C//DTD SVG 20010904//EN"
 "http://www.w3.org/TR/2001/REC-SVG-20010904/DTD/svg10.dtd">
<svg version="1.0" xmlns="http://www.w3.org/2000/svg"
 width="512.000000pt" height="512.000000pt" viewBox="0 0 512.000000 512.000000"
 preserveAspectRatio="xMidYMid meet" fill="currentColor">

<g transform="translate(0.000000,512.000000) scale(0.100000,-0.100000)" stroke="none">
<path d="M2426 4663 c-3 -32 -9 -100 -12 -150 l-7 -93 26 0 c33 0 379 -29 436
-36 l44 -6 -268 -268 -267 -267 -74 53 c-275 197 -640 297 -966 264 -664 -66
-1171 -516 -1310 -1163 -29 -137 -32 -417 -5 -552 73 -360 256 -664 533 -881
335 -262 733 -360 1174 -288 l35 5 48 -95 c96 -191 262 -385 435 -509 159
-115 374 -209 572 -252 103 -22 352 -31 465 -16 616 81 1100 519 1243 1125 24
100 26 131 27 316 0 179 -3 218 -23 310 -44 196 -132 395 -241 545 l-51 70
267 267 c147 147 268 266 270 265 1 -2 12 -115 23 -252 11 -137 22 -250 23
-250 5 -4 288 23 292 27 5 5 -73 949 -79 955 -5 5 -950 83 -954 78 -6 -6 -28
-295 -21 -295 16 0 485 -41 492 -43 4 -1 -114 -123 -261 -270 l-268 -268 -48
37 c-84 64 -226 143 -334 185 -165 64 -290 89 -477 96 -142 5 -304 -6 -349
-23 -9 -3 -29 26 -61 89 -26 52 -73 130 -105 174 l-57 81 267 267 268 268 6
-49 c3 -27 13 -139 22 -249 9 -110 18 -202 20 -204 4 -5 287 19 292 24 6 6
-75 945 -82 952 -6 6 -842 81 -922 82 -31 1 -32 0 -38 -56z m-745 -819 c151
-29 320 -100 448 -191 90 -64 226 -203 282 -288 45 -68 104 -175 97 -178 -439
-209 -731 -574 -829 -1040 -24 -112 -32 -366 -16 -503 10 -86 17 -82 -153 -90
-637 -32 -1178 464 -1207 1106 -21 487 264 933 715 1119 86 36 222 71 317 81
88 11 246 3 346 -16z m1622 -849 c248 -43 434 -141 618 -324 243 -243 349
-515 336 -863 -10 -293 -113 -538 -314 -748 -224 -235 -515 -360 -839 -360
-420 0 -815 234 -1013 600 l-40 74 91 48 c128 68 237 149 342 254 308 307 461
723 423 1154 -15 180 -18 164 28 171 79 12 283 9 368 -6z m-692 -280 c3 -367
-151 -687 -439 -916 -78 -63 -199 -135 -209 -125 -4 3 -8 64 -11 135 -16 439
207 841 584 1054 l59 33 8 -25 c4 -14 8 -84 8 -156z"/>
</g>
</svg>
