<?xml version="1.0" standalone="no"?>
<!DOCTYPE svg PUBLIC "-//W3C//DTD SVG 20010904//EN"
 "http://www.w3.org/TR/2001/REC-SVG-20010904/DTD/svg10.dtd">
<svg version="1.0" xmlns="http://www.w3.org/2000/svg"
 width="1044.000000pt" height="1044.000000pt" viewBox="0 0 1044.000000 1044.000000"
 preserveAspectRatio="xMidYMid meet" fill="currentColor">

<g transform="translate(0.000000,1044.000000) scale(0.100000,-0.100000)">
<path d="M1860 10411 c-197 -5 -351 -13 -375 -19 -22 -7 -62 -29 -89 -49 -187
-143 -208 -442 -43 -607 96 -96 177 -116 474 -116 l212 0 4 -907 c4 -965 7
-1015 56 -1242 68 -309 255 -690 476 -966 263 -329 529 -560 1000 -869 187
-123 285 -182 505 -302 102 -55 185 -107 185 -114 0 -7 -83 -59 -185 -114
-611 -334 -1081 -682 -1381 -1024 -372 -423 -571 -839 -636 -1325 -13 -102
-16 -266 -20 -1023 l-4 -901 -97 -6 c-53 -4 -137 -7 -187 -7 -129 0 -251 -16
-299 -39 -56 -28 -148 -120 -177 -178 -22 -43 -24 -61 -24 -183 0 -122 2 -140
24 -183 30 -60 113 -144 169 -169 37 -17 79 -21 295 -28 329 -12 6665 -12
6994 0 216 7 258 11 295 28 56 25 139 109 169 169 22 43 24 61 23 183 0 174
-17 214 -134 314 -78 67 -115 75 -395 87 -131 5 -240 11 -241 12 -2 1 -5 268
-9 592 -14 1348 -28 1522 -141 1798 -187 459 -469 839 -888 1196 -287 245
-576 438 -1009 671 -125 68 -227 126 -227 130 0 4 102 62 227 130 255 137 375
208 543 320 694 463 1151 992 1373 1590 94 252 102 367 118 1555 5 434 11 790
12 792 2 1 111 7 242 12 280 12 317 20 395 87 117 100 134 140 134 314 1 122
-1 140 -23 183 -30 60 -113 144 -168 169 -36 16 -81 20 -280 28 -293 12 -6429
21 -6893 11z m5779 -1158 c0 -203 -4 -604 -9 -893 -9 -578 -13 -610 -80 -811
-132 -395 -406 -733 -872 -1072 -297 -216 -852 -531 -1271 -722 l-188 -85
-347 173 c-462 231 -679 353 -942 530 -463 311 -752 615 -925 972 -72 148
-110 267 -130 405 -18 124 -33 776 -34 1503 l-1 367 2400 0 2400 0 -1 -367z
m-2308 -4534 c144 -62 462 -218 632 -310 998 -538 1506 -1068 1639 -1708 17
-85 20 -158 28 -621 5 -289 9 -690 9 -892 l1 -368 -2400 0 -2400 0 1 373 c1
669 16 1372 33 1490 27 195 90 366 200 552 248 416 733 809 1476 1199 222 117
652 325 671 326 8 0 58 -18 110 -41z"/>
</g>
</svg>
