<?xml version="1.0" standalone="no"?>
<!DOCTYPE svg PUBLIC "-//W3C//DTD SVG 20010904//EN"
 "http://www.w3.org/TR/2001/REC-SVG-20010904/DTD/svg10.dtd">
<svg fill="currentColor" version="1.0" xmlns="http://www.w3.org/2000/svg"
 width="512.000000pt" height="512.000000pt" viewBox="0 0 512.000000 512.000000"
 preserveAspectRatio="xMidYMid meet">

<g transform="translate(0.000000,512.000000) scale(0.100000,-0.100000)">
<path d="M1150 3934 c-167 -21 -307 -62 -440 -129 -358 -181 -607 -532 -686
-970 -25 -138 -25 -412 0 -550 103 -569 484 -976 1014 -1082 61 -12 135 -17
247 -17 142 0 172 3 270 28 267 67 502 220 729 473 l29 32 -55 93 c-31 51 -79
137 -108 190 l-52 98 -45 -63 c-66 -89 -236 -255 -319 -309 -188 -123 -385
-170 -581 -138 -374 60 -643 329 -729 730 -13 62 -18 128 -18 240 0 220 38
378 131 544 178 316 534 487 876 422 175 -34 328 -124 492 -290 203 -204 347
-439 490 -801 227 -573 599 -1005 1006 -1168 156 -63 253 -81 434 -81 112 0
186 5 247 17 530 106 911 513 1014 1082 25 138 25 412 0 550 -79 438 -328 789
-686 970 -350 176 -781 177 -1100 3 -184 -101 -297 -192 -469 -380 l-34 -37
70 -118 c39 -65 87 -151 107 -191 l37 -73 45 62 c64 86 206 231 284 290 191
143 408 203 617 169 374 -60 643 -329 729 -730 26 -118 26 -362 0 -480 -45
-211 -148 -399 -285 -522 -246 -219 -596 -278 -884 -149 -310 139 -578 477
-782 986 -149 372 -331 661 -560 890 -218 218 -430 339 -695 395 -58 12 -280
21 -340 14z"/>
</g>
</svg>
