<?xml version="1.0" standalone="no"?>
<!DOCTYPE svg PUBLIC "-//W3C//DTD SVG 20010904//EN"
 "http://www.w3.org/TR/2001/REC-SVG-20010904/DTD/svg10.dtd">
<svg version="1.0" xmlns="http://www.w3.org/2000/svg"
 width="512.000000pt" height="512.000000pt" fill="currentColor" viewBox="0 0 512.000000 512.000000"
 preserveAspectRatio="xMidYMid meet">

<g transform="translate(0.000000,512.000000) scale(0.100000,-0.100000)"
 stroke="none">
<path d="M2495 4255 c-22 -8 -42 -15 -45 -15 -15 0 -915 -912 -933 -945 -67
-127 23 -291 167 -303 103 -8 98 -12 504 392 l372 371 368 -367 c202 -201 382
-374 401 -383 54 -27 149 -17 203 21 87 61 117 179 70 269 -25 49 -903 926
-949 949 -48 24 -112 28 -158 11z"/>
<path d="M1620 2114 c-105 -46 -157 -185 -106 -284 25 -49 901 -926 951 -952
51 -27 136 -28 185 -4 49 25 926 901 952 951 41 78 21 192 -44 252 -55 51
-166 69 -231 37 -18 -9 -197 -181 -399 -382 l-368 -367 -367 367 c-203 201
-382 373 -400 382 -40 20 -127 20 -173 0z"/>
</g>
</svg>
