<?xml version="1.0" standalone="no"?>
<!DOCTYPE svg PUBLIC "-//W3C//DTD SVG 20010904//EN"
 "http://www.w3.org/TR/2001/REC-SVG-20010904/DTD/svg10.dtd">
<svg version="1.0" xmlns="http://www.w3.org/2000/svg"
 width="730.000000pt" height="779.000000pt" viewBox="0 0 730.000000 779.000000"
 preserveAspectRatio="xMidYMid meet" fill="currentColor">

<g transform="translate(0.000000,779.000000) scale(0.100000,-0.100000)" stroke="none">
<path d="M34 7782 c-33 -22 -34 -45 -34 -972 l0 -921 25 -24 c24 -25 26 -25
215 -25 186 0 223 5 242 34 4 6 8 252 8 546 l0 535 420 -420 420 -420 -245
-245 c-185 -185 -245 -252 -245 -270 0 -35 285 -320 320 -320 19 0 82 57 270
245 l245 245 196 -196 196 -196 -82 -122 c-249 -370 -365 -800 -335 -1247 33
-490 241 -944 591 -1290 281 -278 657 -477 1029 -543 52 -10 105 -20 118 -22
l22 -4 0 -400 0 -400 -403 0 c-348 0 -406 -2 -425 -16 -22 -15 -22 -19 -22
-229 0 -210 0 -214 22 -229 19 -14 77 -16 425 -16 l403 0 0 -408 c0 -383 1
-410 18 -425 16 -15 47 -17 224 -17 186 0 206 2 221 18 15 17 17 61 17 425 l0
407 408 0 c398 0 409 1 427 20 17 19 18 40 17 228 -1 199 -2 208 -23 224 -19
17 -55 18 -425 18 l-404 0 0 400 0 400 23 4 c12 2 65 12 117 22 443 79 885
344 1177 704 553 685 598 1649 109 2374 l-83 124 788 788 789 789 0 -535 c0
-294 4 -540 8 -546 19 -29 56 -34 242 -34 189 0 191 0 215 25 l25 24 0 924 c0
920 0 924 -21 951 l-20 26 -935 0 c-921 0 -934 0 -954 -20 -19 -19 -20 -33
-20 -225 0 -192 1 -206 20 -225 20 -20 33 -20 557 -20 l538 0 -789 -789 -789
-789 -66 48 c-197 142 -417 247 -652 309 -198 53 -294 65 -519 65 -225 0 -321
-12 -519 -65 -232 -61 -461 -170 -652 -309 l-66 -48 -192 192 c-105 105 -191
196 -191 201 0 6 108 118 240 250 185 185 240 246 240 265 0 35 -284 320 -319
320 -19 0 -83 -58 -271 -245 l-245 -245 -420 420 -420 420 538 0 c524 0 537 0
557 20 19 19 20 33 20 225 0 192 -1 206 -20 225 -20 20 -33 20 -952 20 -513 0
-938 -4 -944 -8z m3917 -2151 c287 -62 535 -192 740 -389 123 -117 184 -193
265 -329 296 -491 279 -1125 -42 -1608 -238 -358 -627 -605 -1049 -665 -114
-16 -355 -13 -461 5 -565 98 -1014 483 -1194 1024 -93 278 -103 559 -30 846
148 590 634 1030 1246 1130 127 21 397 13 525 -14z"/>
</g>
</svg>
